<svg width="800" height="600" viewBox="0 0 800 600" xmlns="http://www.w3.org/2000/svg">
  <defs>
    <linearGradient id="bg" x1="0%" y1="0%" x2="100%" y2="100%">
      <stop offset="0%" style="stop-color:#4facfe;stop-opacity:1" />
      <stop offset="100%" style="stop-color:#00f2fe;stop-opacity:1" />
    </linearGradient>
    <linearGradient id="premium" x1="0%" y1="0%" x2="100%" y2="100%">
      <stop offset="0%" style="stop-color:#667eea;stop-opacity:1" />
      <stop offset="100%" style="stop-color:#764ba2;stop-opacity:1" />
    </linearGradient>
  </defs>
  
  <!-- Background -->
  <rect width="800" height="600" fill="url(#bg)"/>
  
  <!-- Pricing cards -->
  <!-- Basic plan -->
  <rect x="80" y="150" width="180" height="350" rx="16" fill="#ffffff" stroke="#e0e0e0" stroke-width="1"/>
  <rect x="80" y="150" width="180" height="60" rx="16" fill="#f8f9fa"/>
  <text x="170" y="185" font-family="Arial, sans-serif" font-size="18" font-weight="bold" text-anchor="middle" fill="#333">Basic</text>
  <text x="170" y="250" font-family="Arial, sans-serif" font-size="28" font-weight="bold" text-anchor="middle" fill="#333">$9</text>
  <text x="170" y="270" font-family="Arial, sans-serif" font-size="14" text-anchor="middle" fill="#666">/month</text>
  
  <!-- Pro plan -->
  <rect x="310" y="120" width="180" height="380" rx="16" fill="#ffffff" stroke="#667eea" stroke-width="2"/>
  <rect x="310" y="120" width="180" height="60" rx="16" fill="url(#premium)"/>
  <text x="400" y="155" font-family="Arial, sans-serif" font-size="18" font-weight="bold" text-anchor="middle" fill="#ffffff">Pro</text>
  <text x="400" y="220" font-family="Arial, sans-serif" font-size="28" font-weight="bold" text-anchor="middle" fill="#333">$29</text>
  <text x="400" y="240" font-family="Arial, sans-serif" font-size="14" text-anchor="middle" fill="#666">/month</text>
  
  <!-- Enterprise plan -->
  <rect x="540" y="150" width="180" height="350" rx="16" fill="#ffffff" stroke="#e0e0e0" stroke-width="1"/>
  <rect x="540" y="150" width="180" height="60" rx="16" fill="#f8f9fa"/>
  <text x="630" y="185" font-family="Arial, sans-serif" font-size="18" font-weight="bold" text-anchor="middle" fill="#333">Enterprise</text>
  <text x="630" y="250" font-family="Arial, sans-serif" font-size="28" font-weight="bold" text-anchor="middle" fill="#333">$99</text>
  <text x="630" y="270" font-family="Arial, sans-serif" font-size="14" text-anchor="middle" fill="#666">/month</text>
  
  <!-- Feature lines for Basic -->
  <rect x="100" y="300" width="140" height="4" rx="2" fill="#ddd"/>
  <rect x="100" y="320" width="120" height="4" rx="2" fill="#ddd"/>
  <rect x="100" y="340" width="130" height="4" rx="2" fill="#ddd"/>
  <rect x="100" y="360" width="110" height="4" rx="2" fill="#ddd"/>
  
  <!-- Feature lines for Pro -->
  <rect x="330" y="270" width="140" height="4" rx="2" fill="#ddd"/>
  <rect x="330" y="290" width="120" height="4" rx="2" fill="#ddd"/>
  <rect x="330" y="310" width="130" height="4" rx="2" fill="#ddd"/>
  <rect x="330" y="330" width="110" height="4" rx="2" fill="#ddd"/>
  <rect x="330" y="350" width="140" height="4" rx="2" fill="#ddd"/>
  <rect x="330" y="370" width="120" height="4" rx="2" fill="#ddd"/>
  
  <!-- Feature lines for Enterprise -->
  <rect x="560" y="300" width="140" height="4" rx="2" fill="#ddd"/>
  <rect x="560" y="320" width="120" height="4" rx="2" fill="#ddd"/>
  <rect x="560" y="340" width="130" height="4" rx="2" fill="#ddd"/>
  <rect x="560" y="360" width="110" height="4" rx="2" fill="#ddd"/>
  <rect x="560" y="380" width="140" height="4" rx="2" fill="#ddd"/>
  
  <!-- Check marks -->
  <circle cx="110" cy="302" r="8" fill="#4caf50"/>
  <circle cx="110" cy="322" r="8" fill="#4caf50"/>
  <circle cx="110" cy="342" r="8" fill="#4caf50"/>
  <circle cx="110" cy="362" r="8" fill="#4caf50"/>
  
  <circle cx="340" cy="272" r="8" fill="#4caf50"/>
  <circle cx="340" cy="292" r="8" fill="#4caf50"/>
  <circle cx="340" cy="312" r="8" fill="#4caf50"/>
  <circle cx="340" cy="332" r="8" fill="#4caf50"/>
  <circle cx="340" cy="352" r="8" fill="#4caf50"/>
  <circle cx="340" cy="372" r="8" fill="#4caf50"/>
  
  <circle cx="570" cy="302" r="8" fill="#4caf50"/>
  <circle cx="570" cy="322" r="8" fill="#4caf50"/>
  <circle cx="570" cy="342" r="8" fill="#4caf50"/>
  <circle cx="570" cy="362" r="8" fill="#4caf50"/>
  <circle cx="570" cy="382" r="8" fill="#4caf50"/>
  
  <!-- Popular badge for Pro -->
  <rect x="370" y="100" width="60" height="20" rx="10" fill="#ff6b6b"/>
  <text x="400" y="114" font-family="Arial, sans-serif" font-size="10" font-weight="bold" text-anchor="middle" fill="#ffffff">POPULAR</text>
  
  <!-- Buttons -->
  <rect x="110" y="430" width="120" height="35" rx="8" fill="#f8f9fa" stroke="#ddd" stroke-width="1"/>
  <rect x="340" y="430" width="120" height="35" rx="8" fill="#667eea"/>
  <rect x="570" y="430" width="120" height="35" rx="8" fill="#f8f9fa" stroke="#ddd" stroke-width="1"/>
  
  <text x="170" y="452" font-family="Arial, sans-serif" font-size="12" text-anchor="middle" fill="#666">Get Started</text>
  <text x="400" y="452" font-family="Arial, sans-serif" font-size="12" text-anchor="middle" fill="#ffffff">Get Started</text>
  <text x="630" y="452" font-family="Arial, sans-serif" font-size="12" text-anchor="middle" fill="#666">Contact Sales</text>
</svg>
